<?xml version="1.0" encoding="UTF-8"?>
<svg width="45px" height="44px" viewBox="0 0 45 44" version="1.1" xmlns="http://www.w3.org/2000/svg" xmlns:xlink="http://www.w3.org/1999/xlink">
    <!-- Generator: Sketch 45.1 (43504) - http://www.bohemiancoding.com/sketch -->
    <title>sleet</title>
    <desc>Created with Sketch.</desc>
    <defs>
        <linearGradient x1="4.55336364%" y1="20.409%" x2="119.284697%" y2="77.0928696%" id="linearGradient-1">
            <stop stop-color="#FFFFFF" offset="0%"></stop>
            <stop stop-color="#FFFFFF" stop-opacity="0" offset="100%"></stop>
        </linearGradient>
        <linearGradient x1="18.8828959%" y1="17.0551306%" x2="65.0465868%" y2="56.0265142%" id="linearGradient-2">
            <stop stop-color="#FFFFFF" offset="0%"></stop>
            <stop stop-color="#FFFFFF" stop-opacity="0" offset="100%"></stop>
        </linearGradient>
        <linearGradient x1="12.8565165%" y1="4.19887758%" x2="62.2342625%" y2="53.6158279%" id="linearGradient-3">
            <stop stop-color="#FFFFFF" offset="0%"></stop>
            <stop stop-color="#FFFFFF" stop-opacity="0" offset="100%"></stop>
        </linearGradient>
        <linearGradient x1="20.7712746%" y1="20.8316715%" x2="70.8320144%" y2="60.6067688%" id="linearGradient-4">
            <stop stop-color="#FFFFFF" offset="0%"></stop>
            <stop stop-color="#FFFFFF" stop-opacity="0" offset="100%"></stop>
        </linearGradient>
        <linearGradient x1="21.7814371%" y1="14.3291197%" x2="78.5342338%" y2="57.5761746%" id="linearGradient-5">
            <stop stop-color="#FFFFFF" offset="0%"></stop>
            <stop stop-color="#FFFFFF" stop-opacity="0" offset="100%"></stop>
        </linearGradient>
        <linearGradient x1="14.8951852%" y1="23.2242729%" x2="66.7725556%" y2="76.6461416%" id="linearGradient-6">
            <stop stop-color="#FFFFFF" offset="0%"></stop>
            <stop stop-color="#FFFFFF" stop-opacity="0" offset="100%"></stop>
        </linearGradient>
        <linearGradient x1="37.0535849%" y1="17.4104151%" x2="69.642717%" y2="69.1963774%" id="linearGradient-7">
            <stop stop-color="#FFFFFF" offset="0%"></stop>
            <stop stop-color="#FFFFFF" stop-opacity="0" offset="100%"></stop>
        </linearGradient>
        <linearGradient x1="21.8750189%" y1="-5.80362264%" x2="72.3213585%" y2="71.8750189%" id="linearGradient-8">
            <stop stop-color="#FFFFFF" offset="0%"></stop>
            <stop stop-color="#FFFFFF" stop-opacity="0" offset="100%"></stop>
        </linearGradient>
        <linearGradient x1="13.2582642%" y1="14.6%" x2="65.3394717%" y2="67.3713208%" id="linearGradient-9">
            <stop stop-color="#FFFFFF" offset="0%"></stop>
            <stop stop-color="#FFFFFF" stop-opacity="0" offset="100%"></stop>
        </linearGradient>
        <linearGradient x1="14.9379231%" y1="32.4585%" x2="45.9650769%" y2="75.6808333%" id="linearGradient-10">
            <stop stop-color="#FFFFFF" offset="0%"></stop>
            <stop stop-color="#FFFFFF" stop-opacity="0" offset="100%"></stop>
        </linearGradient>
        <linearGradient x1="24.2021132%" y1="21.4742642%" x2="70.9904906%" y2="63.3844528%" id="linearGradient-11">
            <stop stop-color="#FFFFFF" offset="0%"></stop>
            <stop stop-color="#FFFFFF" stop-opacity="0" offset="100%"></stop>
        </linearGradient>
        <linearGradient x1="-3.92920755%" y1="-4.93116981%" x2="57.9175849%" y2="61.5118491%" id="linearGradient-12">
            <stop stop-color="#FFFFFF" offset="0%"></stop>
            <stop stop-color="#FFFFFF" stop-opacity="0" offset="100%"></stop>
        </linearGradient>
        <radialGradient cx="49.9997833%" cy="92.6501113%" fx="49.9997833%" fy="92.6501113%" r="53.7088148%" gradientTransform="translate(0.499998,0.926501),scale(0.629612,1.000000),translate(-0.499998,-0.926501)" id="radialGradient-13">
            <stop stop-color="#FFFFFF" offset="0%"></stop>
            <stop stop-color="#FFFFFF" stop-opacity="0" offset="100%"></stop>
        </radialGradient>
        <radialGradient cx="49.9997841%" cy="92.650229%" fx="49.9997841%" fy="92.650229%" r="53.708814%" gradientTransform="translate(0.499998,0.926502),scale(0.629612,1.000000),translate(-0.499998,-0.926502)" id="radialGradient-14">
            <stop stop-color="#FFFFFF" offset="0%"></stop>
            <stop stop-color="#FFFFFF" stop-opacity="0" offset="100%"></stop>
        </radialGradient>
    </defs>
    <g id="Page-1" stroke="none" stroke-width="1" fill="none" fill-rule="evenodd">
        <g id="sleet">
            <g id="g12825" transform="translate(6.979600, -0.000500)" fill-rule="nonzero">
                <path d="M16.5,2e-05 C13.72758,2e-05 11.39177,1.57373 10.09375,3.81252 C9.14939,3.33748 8.12856,3.00002 7,3.00002 C3.136,3.00002 0,6.13602 0,10.00002 C0,13.86402 3.136,17.00002 7,17.00002 C9.41967,17.00002 11.43009,15.6807 12.6875,13.81252 C13.8217,14.50214 15.07648,15.00002 16.5,15.00002 C17.41312,15.00002 18.25295,14.768 19.0625,14.46877 C19.57244,15.3365 20.24162,16.04849 21.0625,16.62502 C21.05526,16.7554 21,16.86784 21,17.00002 C21,20.86402 24.13599,24.00002 28,24.00002 C31.864,24.00002 35,20.86402 35,17.00002 C35,14.63033 33.74102,12.64168 31.9375,11.37502 C31.94474,11.24464 32,11.1322 32,11.00002 C32,7.13602 28.86401,4.00002 25,4.00002 C24.3773,4.00002 23.82481,4.22221 23.25,4.37502 C22.05547,1.81618 19.50866,2e-05 16.5,2e-05 Z" id="path12827" fill="#555753"></path>
                <path d="M16.5,1.00002 C13.71952,1.00002 11.36549,2.76187 10.4375,5.21877 C9.45208,4.50933 8.30607,4.00002 7,4.00002 C3.688,4.00002 1,6.68802 1,10.00002 C1,13.31202 3.688,16.00002 7,16.00002 C9.42775,16.00002 11.49324,14.54444 12.4375,12.46877 C13.55826,13.38633 14.93964,14.00002 16.5,14.00002 C17.57454,14.00002 18.54428,13.68106 19.4375,13.21877 C19.8359,14.21853 20.53864,15.00509 21.375,15.65627 C21.19499,16.25189 21,16.84592 21,17.50002 C21,21.08802 23.912,24.00002 27.5,24.00002 C31.088,24.00002 34,21.08802 34,17.50002 C34,15.13923 32.66567,13.16983 30.78125,12.03127 C30.84384,11.68404 31,11.36519 31,11.00002 C31,7.68802 28.312,5.00002 25,5.00002 C24.14702,5.00002 23.3287,5.1787 22.59375,5.50002 C21.73998,2.90614 19.37851,1.00003 16.5,1.00002 Z" id="path12829" fill="url(#linearGradient-1)"></path>
                <path d="M33.9999315,17.5000986 C33.9999315,21.0899503 31.0897818,24.0001001 27.4999301,24.0001001 C23.9100784,24.0001001 20.9999286,21.0899503 20.9999286,17.5000986 C20.9999286,13.9102469 23.9100784,11.0000972 27.4999301,11.0000972 C31.0897818,11.0000972 33.9999315,13.9102469 33.9999315,17.5000986 Z" id="path12831" fill="#888A85"></path>
                <g id="g12833" transform="translate(11.000000, 2.000000)">
                    <path d="M10.9999955,5.50004062 C10.9999955,8.53760837 8.53756028,11.0000436 5.49999254,11.0000436 C2.4624248,11.0000436 -1.03902e-05,8.53760837 -1.03902e-05,5.50004062 C-1.03902e-05,2.46247288 2.4624248,3.76938e-05 5.49999254,3.76938e-05 C8.53756028,3.76938e-05 10.9999955,2.46247288 10.9999955,5.50004062 Z" id="path12835" fill="#888A85"></path>
                    <path d="M10.9999955,5.50004062 C10.9999955,8.53760837 8.53756028,11.0000436 5.49999254,11.0000436 C2.4624248,11.0000436 -1.03902e-05,8.53760837 -1.03902e-05,5.50004062 C-1.03902e-05,2.46247288 2.4624248,3.76938e-05 5.49999254,3.76938e-05 C8.53756028,3.76938e-05 10.9999955,2.46247288 10.9999955,5.50004062 Z" id="path12837" fill="url(#linearGradient-2)" opacity="0.4944444"></path>
                </g>
                <g id="g12839" transform="translate(19.000000, 6.000000)">
                    <path d="M11.0000093,5.49996951 C11.0000093,8.53753769 8.53757377,10.9999732 5.50000559,10.9999732 C2.46243742,10.9999732 1.87583998e-06,8.53753769 1.87583998e-06,5.49996951 C1.87583996e-06,2.46240133 2.46243742,-3.420984e-05 5.50000559,-3.420984e-05 C8.53757377,-3.420984e-05 11.0000093,2.46240133 11.0000093,5.49996951 L11.0000093,5.49996951 Z" id="path12841" fill="#888A85"></path>
                    <path d="M11.0000093,5.49996951 C11.0000093,8.53753769 8.53757377,10.9999732 5.50000559,10.9999732 C2.46243742,10.9999732 1.87583998e-06,8.53753769 1.87583998e-06,5.49996951 C1.87583996e-06,2.46240133 2.46243742,-3.420984e-05 5.50000559,-3.420984e-05 C8.53757377,-3.420984e-05 11.0000093,2.46240133 11.0000093,5.49996951 L11.0000093,5.49996951 Z" id="path12843" fill="url(#linearGradient-3)" opacity="0.4944444"></path>
                </g>
                <g id="g12845" transform="translate(2.000000, 5.000000)">
                    <path d="M10.000006,4.99995287 C10.000006,7.76137814 7.76142849,9.99995562 5.00000322,9.99995562 C2.23857795,9.99995562 4.61599939e-07,7.76137814 4.61599939e-07,4.99995287 C4.61599939e-07,2.2385276 2.23857795,-4.9887625e-05 5.00000322,-4.9887625e-05 C7.76142849,-4.9887625e-05 10.000006,2.2385276 10.000006,4.99995287 Z" id="path12847" fill="#888A85"></path>
                    <path d="M10.000006,4.99995287 C10.000006,7.76137814 7.76142849,9.99995562 5.00000322,9.99995562 C2.23857795,9.99995562 4.61599939e-07,7.76137814 4.61599939e-07,4.99995287 C4.61599939e-07,2.2385276 2.23857795,-4.9887625e-05 5.00000322,-4.9887625e-05 C7.76142849,-4.9887625e-05 10.000006,2.2385276 10.000006,4.99995287 Z" id="path12849" fill="url(#linearGradient-4)" opacity="0.4944444"></path>
                </g>
                <g id="g12851" transform="translate(9.000000, 7.000000)">
                    <path d="M14.0000021,6.99995724 C14.0000021,10.8659542 10.8659923,13.999964 6.99999531,13.999964 C3.13399832,13.999964 -1.145684e-05,10.8659542 -1.145684e-05,6.99995724 C-1.145684e-05,3.13396026 3.13399832,-4.95227399e-05 6.99999531,-4.95227399e-05 C10.8659923,-4.95227399e-05 14.0000021,3.13396026 14.0000021,6.99995724 Z" id="path12853" fill="#888A85"></path>
                    <path d="M14.0000121,6.99995724 C14.0000121,10.8659542 10.8660023,13.999964 7.00000531,13.999964 C3.13400832,13.999964 -1.45684004e-06,10.8659542 -1.45684004e-06,6.99995724 C-1.45684004e-06,3.13396026 3.13400832,-4.95227399e-05 7.00000531,-4.95227399e-05 C10.8660023,-4.95227399e-05 14.0000121,3.13396026 14.0000121,6.99995724 Z" id="path12855" fill="url(#linearGradient-5)" opacity="0.4944444"></path>
                </g>
            </g>
            <g id="g12857" transform="translate(15.994000, 11.999400)">
                <path d="M14.49993,0.50007 C12.2291,0.50007 10.39002,2.05035 9.78118,4.12507 C9.08795,3.76124 8.33667,3.50007 7.49993,3.50007 C4.73993,3.50007 2.49992,5.74006 2.49993,8.50007 C2.49993,9.079 2.66245,9.60777 2.84368,10.12507 C1.47021,10.89581 0.49993,12.31407 0.49993,14.00007 C0.49993,16.48407 2.51593,18.50008 4.99993,18.50007 C5.17706,18.50007 23.8228,18.50007 23.99993,18.50007 C26.48392,18.50007 28.49993,16.48407 28.49993,14.00007 C28.49993,12.31407 27.52965,10.89581 26.15618,10.12507 C26.33742,9.60778 26.49993,9.07899 26.49993,8.50007 C26.49993,5.74007 24.25993,3.50008 21.49993,3.50007 C20.66319,3.50007 19.91191,3.76124 19.21868,4.12507 C18.60984,2.05035 16.77076,0.50007 14.49993,0.50007 Z" id="path12859" stroke="#555753" fill="#888A85" fill-rule="nonzero"></path>
                <path d="M14.49993,1.00007 C12.31021,1.00007 10.77633,2.33584 10.10438,4.84359 C9.43592,4.49997 8.55679,4.01024 7.74993,4.01024 C5.03342,4.01024 2.99479,5.94906 2.9948,8.55578 C2.9948,9.10255 3.26201,9.88922 3.43676,10.37779 C2.11233,11.10574 0.99993,12.26829 0.99993,13.75034 C0.99993,16.09639 2.5461,18.00043 5.33921,18.00043 C5.51002,18.00043 23.48985,18.00043 23.66065,18.00043 C26.43166,18.00043 27.99993,16.09639 27.99993,13.75034 C27.99993,12.15797 26.88753,11.08365 25.5631,10.3557 C25.73786,9.86714 26.02717,9.10254 26.02717,8.55578 C26.02717,5.94907 23.91136,3.98815 21.24994,3.98814 C20.44307,3.98814 19.60813,4.47788 18.93967,4.8215 C18.29082,2.39996 16.68966,1.00007 14.49993,1.00007 Z" id="path12861" fill="url(#linearGradient-6)" fill-rule="nonzero"></path>
                <path d="M17.9999293,5.50009337 C17.9999292,7.43309041 16.4329255,9.00009412 14.4999285,9.00009412 C12.5669315,9.00009412 10.9999277,7.43309041 10.9999277,5.50009337 C10.9999277,3.56709634 12.5669315,2.00009262 14.4999285,2.00009262 C16.4329255,2.00009262 17.9999293,3.56709634 17.9999293,5.50009338 L17.9999293,5.50009337 Z" id="path12863" fill="#888A85" fill-rule="nonzero"></path>
                <path d="M17.9999293,5.50009337 C17.9999292,7.43309041 16.4329255,9.00009412 14.4999285,9.00009412 C12.5669315,9.00009412 10.9999277,7.43309041 10.9999277,5.50009337 C10.9999277,3.56709634 12.5669315,2.00009262 14.4999285,2.00009262 C16.4329255,2.00009262 17.9999293,3.56709634 17.9999293,5.50009338 L17.9999293,5.50009337 Z" id="path12865" fill="url(#linearGradient-7)" fill-rule="nonzero" opacity="0.47777775"></path>
                <rect id="rect12867" fill="#888A85" fill-rule="nonzero" x="4.99994" y="8.00008" width="20" height="9"></rect>
                <path d="M7.99983125,14.0002444 C7.99983125,15.6570979 6.65668606,17.0002431 4.9998325,17.0002431 C3.34297894,17.0002431 1.99983375,15.6570979 1.99983375,14.0002444 C1.99983375,12.3433908 3.34297894,11.0002456 4.9998325,11.0002456 C6.65668606,11.0002456 7.99983125,12.3433908 7.99983125,14.0002444 L7.99983125,14.0002444 Z" id="path12869" fill="#888A85" fill-rule="nonzero"></path>
                <path d="M24.9999993,8.49999337 C24.9999992,10.4329904 23.4329955,11.9999941 21.4999985,11.9999941 C19.5670015,11.9999941 17.9999977,10.4329904 17.9999977,8.49999337 C17.9999977,6.56699634 19.5670015,4.99999262 21.4999985,4.99999262 C23.4329955,4.99999262 24.9999993,6.56699634 24.9999993,8.49999338 L24.9999993,8.49999337 Z" id="path12871" fill="#888A85" fill-rule="nonzero"></path>
                <path d="M24.9999293,8.50009337 C24.9999292,10.4330904 23.4329255,12.0000941 21.4999285,12.0000941 C19.5669315,12.0000941 17.9999277,10.4330904 17.9999277,8.50009337 C17.9999277,6.56709634 19.5669315,5.00009262 21.4999285,5.00009262 C23.4329255,5.00009262 24.9999293,6.56709634 24.9999293,8.50009338 L24.9999293,8.50009337 Z" id="path12873" fill="url(#linearGradient-8)" fill-rule="nonzero" opacity="0.47777775"></path>
                <path d="M10.9999293,8.50009337 C10.9999292,10.4330904 9.43292554,12.0000941 7.4999285,12.0000941 C5.56693146,12.0000941 3.99992775,10.4330904 3.99992775,8.50009337 C3.99992775,6.56709634 5.56693146,5.00009262 7.4999285,5.00009262 C9.43292554,5.00009262 10.9999293,6.56709634 10.9999293,8.50009338 L10.9999293,8.50009337 Z" id="path12875" fill="#888A85" fill-rule="nonzero"></path>
                <path d="M10.9999293,8.50009337 C10.9999292,10.4330904 9.43292554,12.0000941 7.4999285,12.0000941 C5.56693146,12.0000941 3.99992775,10.4330904 3.99992775,8.50009337 C3.99992775,6.56709634 5.56693146,5.00009262 7.4999285,5.00009262 C9.43292554,5.00009262 10.9999293,6.56709634 10.9999293,8.50009338 L10.9999293,8.50009337 Z" id="path12877" fill="url(#linearGradient-9)" fill-rule="nonzero" opacity="0.47777775"></path>
                <path d="M13.46868,5.03132 C9.8893,5.03132 6.99993,7.95195 6.99993,11.53132 C6.99993,13.902 8.34936,15.86911 10.24993,17.00007 L16.71868,17.00007 C18.61925,15.86911 19.96868,13.87076 19.96868,11.50007 C19.96868,7.92069 17.04805,5.03132 13.46868,5.03132 Z" id="path12879" fill="#888A85" fill-rule="nonzero"></path>
                <path d="M13.49993,5.00007 C9.91193,5.00007 6.99993,7.91208 6.99993,11.50007 C6.99993,13.87647 8.34478,15.86639 10.24993,17.00007 L16.74993,17.00007 C18.65508,15.86639 19.99993,13.87647 19.99993,11.50007 C19.99993,7.91207 17.08793,5.00008 13.49993,5.00007 Z" id="path12881" fill="url(#linearGradient-10)" fill-rule="nonzero" opacity="0.47777775"></path>
                <path d="M7.99993125,14.0001444 C7.99993125,15.6569979 6.65678606,17.0001431 4.9999325,17.0001431 C3.34307894,17.0001431 1.99993375,15.6569979 1.99993375,14.0001444 C1.99993375,12.3432908 3.34307894,11.0001456 4.9999325,11.0001456 C6.65678606,11.0001456 7.99993125,12.3432908 7.99993125,14.0001444 L7.99993125,14.0001444 Z" id="path12883" fill="url(#linearGradient-11)" fill-rule="nonzero" opacity="0.47777775"></path>
                <path d="M26.95633,8.66611 C26.9548,11.35067 23.68707,12.38006 23.68707,12.38006 C23.68707,12.38006 26.03581,10.75411 26.02392,8.67505 C26.02392,8.67505 26.95633,8.66611 26.95633,8.66611 Z" id="path12885" fill="#555753"></path>
                <path d="M21.9998456,13.00038 C21.9998456,15.2095187 20.2089848,17.0003794 17.9998461,17.0003794 C15.7907074,17.0003794 13.9998467,15.2095187 13.9998467,13.00038 C13.9998467,10.7912413 15.7907074,9.00038053 17.9998461,9.00038053 C20.2089848,9.00038053 21.9998456,10.7912413 21.9998456,13.00038 L21.9998456,13.00038 Z" id="path12887" fill="#888A85" fill-rule="nonzero"></path>
                <path d="M21.9998456,13.00038 C21.9998456,15.2095187 20.2089848,17.0003794 17.9998461,17.0003794 C15.7907074,17.0003794 13.9998467,15.2095187 13.9998467,13.00038 C13.9998467,10.7912413 15.7907074,9.00038053 17.9998461,9.00038053 C20.2089848,9.00038053 21.9998456,10.7912413 21.9998456,13.00038 L21.9998456,13.00038 Z" id="path12889" fill="url(#linearGradient-12)" fill-rule="nonzero" opacity="0.47777775"></path>
            </g>
            <path d="M30.626355,12.99952 C28.626255,12.99952 26.940775,14.07902 26.095785,15.61446 C25.500875,15.39255 24.851145,15.26109 24.169835,15.26109 C21.339625,15.26109 19.052305,17.37926 19.052305,19.97859 C19.052305,20.43234 19.196835,20.83542 19.327445,21.25072 C17.945125,22.11599 16.979615,23.50429 16.979615,25.15545 C16.979615,27.80828 17.631235,30.1488 22.207195,29.9613 C22.252315,29.95945 39.658675,30.05828 39.907605,29.94327 C42.992815,30.16922 43.979615,27.49754 43.979615,25.24381 C43.979615,23.5433 43.142675,22.19396 41.670345,21.36622 C41.718305,21.10766 41.631785,20.81503 41.631785,20.54397 C41.631785,17.94465 39.326135,15.82648 36.495915,15.82648 C36.102425,15.82648 35.763515,15.9613 35.395375,16.0385 C34.656915,14.27038 32.810365,12.99952 30.626355,12.99952 Z" id="path13209" fill="url(#radialGradient-13)" fill-rule="nonzero"></path>
            <g id="g12891" transform="translate(0.979700, 7.983400)">
                <path d="M14.49993,0.50007 C12.2291,0.50007 10.39002,2.05035 9.78118,4.12507 C9.08795,3.76124 8.33667,3.50007 7.49993,3.50007 C4.73993,3.50007 2.49992,5.74006 2.49993,8.50007 C2.49993,9.079 2.66245,9.60777 2.84368,10.12507 C1.47021,10.89581 0.49993,12.31407 0.49993,14.00007 C0.49993,16.48407 2.51593,18.50008 4.99993,18.50007 C5.17706,18.50007 23.8228,18.50007 23.99993,18.50007 C26.48392,18.50007 28.49993,16.48407 28.49993,14.00007 C28.49993,12.31407 27.52965,10.89581 26.15618,10.12507 C26.33742,9.60778 26.49993,9.07899 26.49993,8.50007 C26.49993,5.74007 24.25993,3.50008 21.49993,3.50007 C20.66319,3.50007 19.91191,3.76124 19.21868,4.12507 C18.60984,2.05035 16.77076,0.50007 14.49993,0.50007 Z" id="path12893" stroke="#555753" fill="#888A85" fill-rule="nonzero"></path>
                <path d="M14.49993,1.00007 C12.31021,1.00007 10.77633,2.33584 10.10438,4.84359 C9.43592,4.49997 8.55679,4.01024 7.74993,4.01024 C5.03342,4.01024 2.99479,5.94906 2.9948,8.55578 C2.9948,9.10255 3.26201,9.88922 3.43676,10.37779 C2.11233,11.10574 0.99993,12.26829 0.99993,13.75034 C0.99993,16.09639 2.5461,18.00043 5.33921,18.00043 C5.51002,18.00043 23.48985,18.00043 23.66065,18.00043 C26.43166,18.00043 27.99993,16.09639 27.99993,13.75034 C27.99993,12.15797 26.88753,11.08365 25.5631,10.3557 C25.73786,9.86714 26.02717,9.10254 26.02717,8.55578 C26.02717,5.94907 23.91136,3.98815 21.24994,3.98814 C20.44307,3.98814 19.60813,4.47788 18.93967,4.8215 C18.29082,2.39996 16.68966,1.00007 14.49993,1.00007 Z" id="path12895" fill="url(#linearGradient-6)" fill-rule="nonzero"></path>
                <path d="M17.9999293,5.50009337 C17.9999292,7.43309041 16.4329255,9.00009412 14.4999285,9.00009412 C12.5669315,9.00009412 10.9999277,7.43309041 10.9999277,5.50009337 C10.9999277,3.56709634 12.5669315,2.00009262 14.4999285,2.00009262 C16.4329255,2.00009262 17.9999293,3.56709634 17.9999293,5.50009338 L17.9999293,5.50009337 Z" id="path12897" fill="#888A85" fill-rule="nonzero"></path>
                <path d="M17.9999293,5.50009337 C17.9999292,7.43309041 16.4329255,9.00009412 14.4999285,9.00009412 C12.5669315,9.00009412 10.9999277,7.43309041 10.9999277,5.50009337 C10.9999277,3.56709634 12.5669315,2.00009262 14.4999285,2.00009262 C16.4329255,2.00009262 17.9999293,3.56709634 17.9999293,5.50009338 L17.9999293,5.50009337 Z" id="path12899" fill="url(#linearGradient-7)" fill-rule="nonzero" opacity="0.47777775"></path>
                <rect id="rect12901" fill="#888A85" fill-rule="nonzero" x="4.99994" y="8.00008" width="20" height="9"></rect>
                <path d="M7.99983125,14.0002444 C7.99983125,15.6570979 6.65668606,17.0002431 4.9998325,17.0002431 C3.34297894,17.0002431 1.99983375,15.6570979 1.99983375,14.0002444 C1.99983375,12.3433908 3.34297894,11.0002456 4.9998325,11.0002456 C6.65668606,11.0002456 7.99983125,12.3433908 7.99983125,14.0002444 L7.99983125,14.0002444 Z" id="path12903" fill="#888A85" fill-rule="nonzero"></path>
                <path d="M24.9999993,8.49999337 C24.9999992,10.4329904 23.4329955,11.9999941 21.4999985,11.9999941 C19.5670015,11.9999941 17.9999977,10.4329904 17.9999977,8.49999337 C17.9999977,6.56699634 19.5670015,4.99999262 21.4999985,4.99999262 C23.4329955,4.99999262 24.9999993,6.56699634 24.9999993,8.49999338 L24.9999993,8.49999337 Z" id="path12905" fill="#888A85" fill-rule="nonzero"></path>
                <path d="M24.9999293,8.50009337 C24.9999292,10.4330904 23.4329255,12.0000941 21.4999285,12.0000941 C19.5669315,12.0000941 17.9999277,10.4330904 17.9999277,8.50009337 C17.9999277,6.56709634 19.5669315,5.00009262 21.4999285,5.00009262 C23.4329255,5.00009262 24.9999293,6.56709634 24.9999293,8.50009338 L24.9999293,8.50009337 Z" id="path12907" fill="url(#linearGradient-8)" fill-rule="nonzero" opacity="0.47777775"></path>
                <path d="M10.9999293,8.50009337 C10.9999292,10.4330904 9.43292554,12.0000941 7.4999285,12.0000941 C5.56693146,12.0000941 3.99992775,10.4330904 3.99992775,8.50009337 C3.99992775,6.56709634 5.56693146,5.00009262 7.4999285,5.00009262 C9.43292554,5.00009262 10.9999293,6.56709634 10.9999293,8.50009338 L10.9999293,8.50009337 Z" id="path12909" fill="#888A85" fill-rule="nonzero"></path>
                <path d="M10.9999293,8.50009337 C10.9999292,10.4330904 9.43292554,12.0000941 7.4999285,12.0000941 C5.56693146,12.0000941 3.99992775,10.4330904 3.99992775,8.50009337 C3.99992775,6.56709634 5.56693146,5.00009262 7.4999285,5.00009262 C9.43292554,5.00009262 10.9999293,6.56709634 10.9999293,8.50009338 L10.9999293,8.50009337 Z" id="path12911" fill="url(#linearGradient-9)" fill-rule="nonzero" opacity="0.47777775"></path>
                <path d="M13.46868,5.03132 C9.8893,5.03132 6.99993,7.95195 6.99993,11.53132 C6.99993,13.902 8.34936,15.86911 10.24993,17.00007 L16.71868,17.00007 C18.61925,15.86911 19.96868,13.87076 19.96868,11.50007 C19.96868,7.92069 17.04805,5.03132 13.46868,5.03132 Z" id="path12913" fill="#888A85" fill-rule="nonzero"></path>
                <path d="M13.49993,5.00007 C9.91193,5.00007 6.99993,7.91208 6.99993,11.50007 C6.99993,13.87647 8.34478,15.86639 10.24993,17.00007 L16.74993,17.00007 C18.65508,15.86639 19.99993,13.87647 19.99993,11.50007 C19.99993,7.91207 17.08793,5.00008 13.49993,5.00007 Z" id="path12915" fill="url(#linearGradient-10)" fill-rule="nonzero" opacity="0.47777775"></path>
                <path d="M7.99993125,14.0001444 C7.99993125,15.6569979 6.65678606,17.0001431 4.9999325,17.0001431 C3.34307894,17.0001431 1.99993375,15.6569979 1.99993375,14.0001444 C1.99993375,12.3432908 3.34307894,11.0001456 4.9999325,11.0001456 C6.65678606,11.0001456 7.99993125,12.3432908 7.99993125,14.0001444 L7.99993125,14.0001444 Z" id="path12917" fill="url(#linearGradient-11)" fill-rule="nonzero" opacity="0.47777775"></path>
                <path d="M26.95633,8.66611 C26.9548,11.35067 23.68707,12.38006 23.68707,12.38006 C23.68707,12.38006 26.03581,10.75411 26.02392,8.67505 C26.02392,8.67505 26.95633,8.66611 26.95633,8.66611 Z" id="path12919" fill="#555753"></path>
                <path d="M21.9998456,13.00038 C21.9998456,15.2095187 20.2089848,17.0003794 17.9998461,17.0003794 C15.7907074,17.0003794 13.9998467,15.2095187 13.9998467,13.00038 C13.9998467,10.7912413 15.7907074,9.00038053 17.9998461,9.00038053 C20.2089848,9.00038053 21.9998456,10.7912413 21.9998456,13.00038 L21.9998456,13.00038 Z" id="path12921" fill="#888A85" fill-rule="nonzero"></path>
                <path d="M21.9998456,13.00038 C21.9998456,15.2095187 20.2089848,17.0003794 17.9998461,17.0003794 C15.7907074,17.0003794 13.9998467,15.2095187 13.9998467,13.00038 C13.9998467,10.7912413 15.7907074,9.00038053 17.9998461,9.00038053 C20.2089848,9.00038053 21.9998456,10.7912413 21.9998456,13.00038 L21.9998456,13.00038 Z" id="path12923" fill="url(#linearGradient-12)" fill-rule="nonzero" opacity="0.47777775"></path>
            </g>
            <path d="M15.188855,9 C13.188755,9 11.503275,10.0795 10.658285,11.61494 C10.063375,11.39303 9.413645,11.26157 8.7323346,11.26157 C5.9021246,11.26157 3.6148046,13.37974 3.6148046,15.97907 C3.6148046,16.43282 3.7593346,16.8359 3.8899446,17.2512 C2.5076246,18.11647 1.5421146,19.50477 1.5421146,21.15593 C1.5421146,23.80876 2.1937346,26.14928 6.7696946,25.96178 C6.8148146,25.95993 24.221175,26.05876 24.470105,25.94375 C27.555315,26.1697 28.542115,23.49802 28.542115,21.24429 C28.542115,19.54378 27.705175,18.19444 26.232845,17.3667 C26.280805,17.10814 26.194285,16.81551 26.194285,16.54445 C26.194285,13.94513 23.888635,11.82696 21.058415,11.82696 C20.664925,11.82696 20.326015,11.96178 19.957875,12.03898 C19.219415,10.27086 17.372865,9 15.188855,9 Z" id="path11418" fill="url(#radialGradient-14)" fill-rule="nonzero"></path>
            <path d="M25.0440994,39 C24.6953416,40.3420807 24.3465839,41.6841615 23.9978261,43.0262422" id="Path-2" stroke="#979797"></path>
            <path d="M14.9021739,36 C14.5860248,37.1074534 14.2698758,38.2149068 13.9537267,39.3223602" id="Path" stroke="#979797"></path>
            <path d="M18,38 C17.6512422,39.3420807 17.3024845,40.6841615 16.9537267,42.0262422" id="Path-2" stroke="#979797"></path>
            <path d="M21.9462733,37 C21.6301242,38.1074534 21.3139752,39.2149068 20.9978261,40.3223602" id="Path" stroke="#979797"></path>
            <path d="M32.0462733,39 C31.6975155,40.3420807 31.3487578,41.6841615 31,43.0262422" id="Path-2" stroke="#979797"></path>
            <path d="M35.134472,34 C34.7857143,35.3420807 34.4369565,36.6841615 34.0881988,38.0262422" id="Path-2" stroke="#979797"></path>
            <path d="M32.036646,32 C31.7204969,33.1074534 31.4043478,34.2149068 31.0881988,35.3223602" id="Path" stroke="#979797"></path>
            <path d="M28.9484472,38 C28.6322981,39.1074534 28.3161491,40.2149068 28,41.3223602" id="Path" stroke="#979797"></path>
            <path d="M24.9925466,32 C24.6763975,33.1074534 24.3602484,34.2149068 24.0440994,35.3223602" id="Path" stroke="#979797"></path>
            <path d="M27.0903727,34 C26.7416149,35.3420807 26.3928571,36.6841615 26.0440994,38.0262422" id="Path" stroke="#979797"></path>
            <path d="M20.0462733,34 C19.6975155,35.3420807 19.3487578,36.6841615 19,38.0262422" id="Path-2" stroke="#979797"></path>
            <path d="M17.9484472,32 C17.6322981,33.1074534 17.3161491,34.2149068 17,35.3223602" id="Path" stroke="#979797"></path>
            <path d="M13.0021739,31.7909938 C12.6534161,33.1330745 12.3046584,34.4751553 11.9559006,35.817236" id="Path-2" stroke="#979797"></path>
            <path d="M10.6231366,29.8805901 C10.3069876,30.9880435 9.99083851,32.0954969 9.67468944,33.2029503" id="Path" stroke="#979797"></path>
        </g>
    </g>
</svg>